# Blender 4.5.7 LTS
# www.blender.org
o Cereal_Frosted
v -0.214953 -0.238837 0.214953
v -0.214953 -0.214953 0.238837
v -0.238837 -0.214953 0.214953
v -0.214953 0.214953 0.238837
v -0.214953 0.238837 0.214953
v -0.238837 0.214953 0.214953
v -0.214953 -0.238837 -0.214953
v -0.238837 -0.214953 -0.214953
v -0.214953 -0.214953 -0.238837
v -0.214953 0.238837 -0.214953
v -0.214953 0.214953 -0.238837
v -0.238837 0.214953 -0.214953
v 0.214953 -0.238837 0.214953
v 0.238837 -0.214953 0.214953
v 0.214953 -0.214953 0.238837
v 0.214953 0.238837 0.214953
v 0.214953 0.214953 0.238837
v 0.238837 0.214953 0.214953
v 0.214953 -0.238837 -0.214953
v 0.214953 -0.214953 -0.238837
v 0.238837 -0.214953 -0.214953
v 0.214953 0.238837 -0.214953
v 0.238837 0.214953 -0.214953
v 0.214953 0.214953 -0.238837
vn -0.5774 -0.5774 0.5774
vn -0.5774 0.5774 0.5774
vn -0.5774 -0.5774 -0.5774
vn -0.5774 0.5774 -0.5774
vn 0.5774 -0.5774 0.5774
vn 0.5774 0.5774 0.5774
vn 0.5774 -0.5774 -0.5774
vn 0.5774 0.5774 -0.5774
vn -0.7071 -0.7071 -0.0000
vn -0.7071 -0.0000 0.7071
vn -0.7071 0.7071 -0.0000
vn -0.7071 -0.0000 -0.7071
vn -0.0000 -0.7071 -0.7071
vn -0.0000 0.7071 -0.7071
vn 0.7071 -0.0000 -0.7071
vn 0.7071 -0.7071 -0.0000
vn 0.7071 0.7071 -0.0000
vn 0.7071 -0.0000 0.7071
vn -0.0000 -0.7071 0.7071
vn -0.0000 0.7071 0.7071
vn -0.0000 -1.0000 -0.0000
vn -1.0000 -0.0000 -0.0000
vn -0.0000 -0.0000 1.0000
vn -0.0000 1.0000 -0.0000
vn -0.0000 -0.0000 -1.0000
vn 1.0000 -0.0000 -0.0000
vt 0.137500 0.737500
vt 0.137500 0.750000
vt 0.125000 0.737500
vt 0.612500 0.000000
vt 0.625000 0.012500
vt 0.612500 0.012500
vt 0.137500 0.512500
vt 0.125000 0.512500
vt 0.137500 0.500000
vt 0.625000 0.249791
vt 0.612500 0.262471
vt 0.612500 0.237500
vt 0.362500 0.737500
vt 0.387471 0.737500
vt 0.385749 0.761624
vt 0.636624 0.739251
vt 0.612500 0.762500
vt 0.612500 0.737529
vt 0.362500 0.512500
vt 0.385749 0.488376
vt 0.387471 0.512500
vt 0.636624 0.510749
vt 0.612500 0.512471
vt 0.612500 0.487500
vt 0.387500 0.012500
vt 0.387500 0.000000
vt 0.387500 0.262500
vt 0.625000 0.987500
vt 0.387500 0.237500
vt 0.387500 0.987500
vt 0.862500 0.512500
vt 0.612500 0.987500
vt 0.862500 0.737500
s 0
f 1/1/1 2/2/1 3/3/1
f 4/4/2 5/5/2 6/6/2
f 7/7/3 8/8/3 9/9/3
f 10/10/4 11/11/4 12/12/4
f 13/13/5 14/14/5 15/15/5
f 16/16/6 17/17/6 18/18/6
f 19/19/7 20/20/7 21/21/7
f 22/22/8 23/23/8 24/24/8
f 1/1/9 8/8/9 7/7/9
f 4/4/10 3/25/10 2/26/10
f 10/10/11 6/6/11 5/5/11
f 9/27/12 12/12/12 11/11/12
f 7/7/13 20/20/13 19/19/13
f 22/22/14 11/11/14 10/10/14
f 21/21/15 24/24/15 23/23/15
f 19/19/16 14/14/16 13/13/16
f 16/16/17 23/23/17 22/22/17
f 15/15/18 18/18/18 17/17/18
f 13/13/19 2/2/19 1/1/19
f 5/28/20 17/17/20 16/16/20
f 19/19/21 1/1/21 7/7/21
f 6/6/22 8/29/22 3/25/22
f 17/17/23 2/30/23 15/15/23
f 10/31/24 16/16/24 22/22/24
f 11/11/25 20/20/25 9/27/25
f 23/23/26 14/14/26 21/21/26
f 1/1/9 3/3/9 8/8/9
f 4/4/10 6/6/10 3/25/10
f 10/10/11 12/12/11 6/6/11
f 9/27/12 8/29/12 12/12/12
f 7/7/13 9/9/13 20/20/13
f 22/22/14 24/24/14 11/11/14
f 21/21/15 20/20/15 24/24/15
f 19/19/16 21/21/16 14/14/16
f 16/16/17 18/18/17 23/23/17
f 15/15/18 14/14/18 18/18/18
f 13/13/19 15/15/19 2/2/19
f 5/28/20 4/32/20 17/17/20
f 19/19/21 13/13/21 1/1/21
f 6/6/22 12/12/22 8/29/22
f 17/17/23 4/32/23 2/30/23
f 10/31/24 5/33/24 16/16/24
f 11/11/25 24/24/25 20/20/25
f 23/23/26 18/18/26 14/14/26
