# Blender 4.5.7 LTS
# www.blender.org
o Marshmallow_Choco
v -0.402458 0.016111 0.000000
v -0.386546 0.000000 0.002531
v -0.375205 0.000000 -0.065511
v -0.390792 0.016111 -0.069993
v -0.333255 0.000000 -0.166192
v -0.347047 0.016111 -0.174982
v -0.274783 0.000000 -0.230233
v -0.285803 0.016111 -0.242058
v -0.228443 0.016111 -0.287468
v -0.199949 0.000000 -0.289477
v -0.215291 0.016111 -0.313572
v -0.213414 0.016111 -0.371773
v -0.197033 0.000000 -0.379848
v -0.200226 0.016111 -0.397830
v -0.184734 0.016111 -0.410002
v -0.166493 0.000000 -0.403844
v -0.155954 0.016111 -0.419956
v -0.109435 0.016111 -0.419956
v -0.102504 0.000000 -0.403844
v -0.085110 0.016111 -0.406095
v -0.054875 0.016111 -0.355075
v -0.055842 0.000000 -0.325103
v -0.030550 0.016111 -0.341214
v 0.004303 0.016111 -0.341214
v -0.012188 0.000000 -0.325103
v 0.010628 0.016111 -0.328416
v -0.007711 0.016111 -0.304434
v -0.048404 0.000000 -0.277743
v -0.001430 0.016111 -0.290460
v 0.086004 0.016111 -0.284063
v 0.093621 0.000000 -0.267351
v 0.111789 0.016111 -0.270036
v 0.177079 0.000000 -0.156970
v 0.192480 0.016111 -0.163316
v 0.204904 0.016111 -0.071377
v 0.192645 0.000000 -0.041784
v 0.222881 0.016111 -0.052358
v 0.368972 0.000000 -0.007756
v 0.373294 0.016111 -0.023331
v 0.477734 0.016111 0.014879
v 0.478975 0.000000 0.032489
v 0.496241 0.016111 0.036168
v 0.506987 0.016111 0.086319
v 0.492821 0.000000 0.097103
v 0.499226 0.016111 0.113715
v 0.457340 0.016111 0.157506
v 0.438520 0.000000 0.153872
v 0.430216 0.016111 0.171147
v 0.233218 0.000000 0.179535
v 0.236225 0.016111 0.195396
v 0.105326 0.000000 0.212252
v 0.110822 0.016111 0.227476
v 0.014560 0.016111 0.273073
v -0.002186 0.000000 0.263178
v -0.015841 0.016111 0.277031
v -0.277714 0.000000 0.212050
v -0.282887 0.016111 0.227476
v -0.431793 0.016111 0.153023
v -0.425738 0.000000 0.138037
v -0.440219 0.016111 0.130859
v -0.395552 0.000000 0.062571
v -0.411207 0.016111 0.058327
v -0.386546 0.116588 0.002531
v -0.402458 0.100476 0.000000
v -0.390792 0.100476 -0.069993
v -0.375205 0.116588 -0.065511
v -0.347047 0.100476 -0.174982
v -0.333255 0.116588 -0.166192
v -0.285803 0.100476 -0.242058
v -0.274783 0.116588 -0.230233
v -0.228443 0.100476 -0.287468
v -0.215291 0.100476 -0.313572
v -0.199949 0.116588 -0.289477
v -0.213414 0.100476 -0.371773
v -0.200226 0.100476 -0.397830
v -0.197033 0.116588 -0.379848
v -0.184734 0.100476 -0.410002
v -0.155954 0.100476 -0.419956
v -0.166493 0.116588 -0.403844
v -0.109435 0.100476 -0.419956
v -0.085110 0.100476 -0.406095
v -0.102504 0.116588 -0.403844
v -0.054875 0.100476 -0.355075
v -0.030550 0.100476 -0.341214
v -0.055842 0.116588 -0.325103
v 0.004303 0.100476 -0.341214
v 0.010628 0.100476 -0.328416
v -0.012188 0.116588 -0.325103
v -0.007711 0.100476 -0.304434
v -0.001430 0.100476 -0.290460
v -0.048404 0.116588 -0.277743
v 0.086004 0.100476 -0.284063
v 0.111790 0.100476 -0.270036
v 0.093621 0.116588 -0.267351
v 0.192480 0.100476 -0.163316
v 0.177079 0.116588 -0.156970
v 0.204904 0.100476 -0.071377
v 0.222881 0.100476 -0.052358
v 0.192645 0.116588 -0.041784
v 0.373294 0.100476 -0.023331
v 0.368972 0.116588 -0.007756
v 0.477734 0.100476 0.014879
v 0.496241 0.100476 0.036168
v 0.478975 0.116588 0.032489
v 0.506987 0.100476 0.086319
v 0.499226 0.100476 0.113715
v 0.492821 0.116588 0.097103
v 0.457340 0.100476 0.157506
v 0.430216 0.100476 0.171147
v 0.438520 0.116588 0.153872
v 0.236225 0.100476 0.195396
v 0.233218 0.116588 0.179535
v 0.110822 0.100476 0.227476
v 0.105326 0.116588 0.212252
v 0.014560 0.100476 0.273073
v -0.015841 0.100476 0.277031
v -0.002186 0.116588 0.263178
v -0.282887 0.100476 0.227476
v -0.277714 0.116588 0.212050
v -0.431793 0.100476 0.153023
v -0.440219 0.100476 0.130859
v -0.425738 0.116588 0.138037
v -0.411207 0.100476 0.058327
v -0.395552 0.116588 0.062571
vn -0.4901 -0.8360 -0.2469
vn -0.7375 -0.5627 -0.3733
vn -0.2638 -0.5903 -0.7629
vn 0.4140 -0.5484 -0.7265
vn 0.2571 -0.8546 -0.4511
vn 0.5309 -0.8058 -0.2624
vn 0.2899 -0.9481 -0.1303
vn 0.3942 -0.5653 -0.7246
vn 0.3507 -0.8758 -0.3315
vn 0.6302 -0.5502 -0.5478
vn 0.8017 -0.5529 0.2271
vn 0.3635 -0.5877 0.7228
vn 0.1036 -0.5965 0.7959
vn -0.7723 -0.5633 0.2936
vn -0.4901 0.8360 -0.2469
vn -0.7375 0.5627 -0.3733
vn -0.2638 0.5903 -0.7629
vn 0.4140 0.5484 -0.7265
vn 0.2571 0.8546 -0.4511
vn 0.5309 0.8058 -0.2624
vn 0.2899 0.9481 -0.1303
vn 0.3942 0.5653 -0.7246
vn 0.3507 0.8758 -0.3315
vn 0.6302 0.5502 -0.5478
vn 0.8017 0.5529 0.2271
vn 0.3635 0.5877 0.7228
vn 0.1036 0.5965 0.7959
vn -0.7723 0.5633 0.2936
vn -0.6975 -0.7071 -0.1162
vn -0.6527 -0.7071 -0.2720
vn -0.5222 -0.7071 -0.4768
vn -0.4389 -0.7071 -0.5544
vn -0.7067 -0.7071 -0.0228
vn -0.4369 -0.7071 -0.5560
vn -0.0000 -0.7071 -0.7071
vn 0.6083 -0.7071 -0.3605
vn 0.5617 -0.7071 0.4295
vn 0.0516 -0.7071 -0.7052
vn 0.5640 -0.7071 -0.4265
vn 0.7007 -0.7071 -0.0947
vn 0.1340 -0.7071 -0.6943
vn 0.2429 -0.7071 -0.6641
vn 0.6914 -0.7071 -0.1482
vn 0.5110 -0.7071 0.4888
vn 0.0877 -0.7071 0.7016
vn 0.1752 -0.7071 0.6850
vn 0.3027 -0.7071 0.6390
vn -0.1290 -0.7071 0.6952
vn -0.3162 -0.7071 0.6325
vn -0.6565 -0.7071 -0.2626
vn -0.6993 -0.7071 -0.1049
vn -0.6975 0.7071 -0.1162
vn -0.6527 0.7071 -0.2720
vn -0.5222 0.7071 -0.4768
vn -0.4389 0.7071 -0.5544
vn -0.7067 0.7071 -0.0228
vn -0.4369 0.7071 -0.5560
vn -0.0000 0.7071 -0.7071
vn 0.6083 0.7071 -0.3605
vn 0.5617 0.7071 0.4295
vn 0.0516 0.7071 -0.7052
vn 0.5640 0.7071 -0.4265
vn 0.7007 0.7071 -0.0947
vn 0.1340 0.7071 -0.6943
vn 0.2429 0.7071 -0.6641
vn 0.6914 0.7071 -0.1482
vn 0.5110 0.7071 0.4888
vn 0.0877 0.7071 0.7016
vn 0.1752 0.7071 0.6850
vn 0.3027 0.7071 0.6390
vn -0.1290 0.7071 0.6952
vn -0.3162 0.7071 0.6325
vn -0.6565 0.7071 -0.2626
vn -0.6993 0.7071 -0.1049
vn 0.7547 -0.0000 -0.6561
vn 0.4951 -0.0000 -0.8689
vn -0.9347 -0.0000 0.3554
vn 0.9621 -0.0000 0.2725
vn 0.8965 -0.0000 -0.4430
vn 0.4493 -0.0000 0.8934
vn 0.9121 -0.0000 -0.4100
vn 0.4779 -0.0000 -0.8784
vn -0.8931 -0.0000 -0.4499
vn -0.8922 -0.0000 -0.4516
vn 0.1291 -0.0000 0.9916
vn 0.7267 -0.0000 -0.6869
vn -0.3269 -0.0000 -0.9451
vn -0.9864 -0.0000 -0.1644
vn -0.0000 -1.0000 -0.0000
vn -0.9889 -0.0000 -0.1483
vn -0.9231 -0.0000 -0.3846
vn -0.7385 -0.0000 -0.6743
vn -0.6207 -0.0000 -0.7840
vn -0.9995 -0.0000 -0.0322
vn -0.6178 -0.0000 -0.7863
vn -0.0000 -0.0000 -1.0000
vn 0.8603 -0.0000 -0.5098
vn 0.7944 -0.0000 0.6075
vn 0.0730 -0.0000 -0.9973
vn 0.7977 -0.0000 -0.6031
vn 0.9910 -0.0000 -0.1339
vn 0.1895 -0.0000 -0.9819
vn 0.3436 -0.0000 -0.9391
vn 0.9778 -0.0000 -0.2095
vn 0.7226 -0.0000 0.6912
vn 0.1240 -0.0000 0.9923
vn 0.2478 -0.0000 0.9688
vn 0.4281 -0.0000 0.9037
vn -0.1825 -0.0000 0.9832
vn -0.4472 -0.0000 0.8944
vn -0.9285 -0.0000 -0.3714
vn -0.0000 1.0000 -0.0000
vn 0.9621 -0.0000 0.2726
vt 0.307827 0.567417
vt 0.326821 0.568610
vt 0.314313 0.552229
vt 0.909786 0.967791
vt 0.909786 0.987812
vt 0.920832 0.977731
vt 0.263043 0.657519
vt 0.245095 0.657519
vt 0.249943 0.668564
vt 0.213859 0.657519
vt 0.195608 0.657519
vt 0.206976 0.668564
vt 0.400317 0.488125
vt 0.399948 0.469002
vt 0.379390 0.479357
vt 0.410765 0.448420
vt 0.405417 0.440293
vt 0.392938 0.453578
vt 0.386024 0.442891
vt 0.379991 0.434385
vt 0.354642 0.458709
vt 0.403471 0.380556
vt 0.403460 0.360514
vt 0.392783 0.371271
vt 0.318866 0.237339
vt 0.313580 0.220195
vt 0.294650 0.235370
vt 0.354263 0.046617
vt 0.347844 0.028381
vt 0.341083 0.040789
vt 0.126723 0.644736
vt 0.126723 0.625215
vt 0.115678 0.635025
vt 0.909786 -0.000000
vt 0.909786 0.014657
vt 0.920832 0.013025
vt 0.909786 0.262617
vt 0.909786 0.281515
vt 0.920832 0.275659
vt 0.909787 0.578916
vt 0.909787 0.589976
vt 0.920832 0.589965
vt 0.728278 0.021218
vt 0.734764 0.036405
vt 0.747272 0.020024
vt 0.851948 0.967791
vt 0.840902 0.977731
vt 0.851948 0.987812
vt 0.263043 0.599680
vt 0.249943 0.588634
vt 0.245095 0.599680
vt 0.213859 0.599680
vt 0.206976 0.588634
vt 0.195608 0.599680
vt 0.820768 0.100510
vt 0.799841 0.109277
vt 0.820399 0.119632
vt 0.831216 0.140214
vt 0.813389 0.135056
vt 0.825868 0.148342
vt 0.806475 0.145744
vt 0.775093 0.129925
vt 0.800442 0.154250
vt 0.823922 0.208078
vt 0.813234 0.217363
vt 0.823911 0.228120
vt 0.739317 0.351295
vt 0.715102 0.353264
vt 0.734031 0.368440
vt 0.774714 0.542018
vt 0.761534 0.547845
vt 0.768295 0.560254
vt 0.184562 0.644736
vt 0.195608 0.635025
vt 0.184562 0.625215
vt 0.851948 -0.000000
vt 0.840902 0.013025
vt 0.851948 0.014657
vt 0.851948 0.262617
vt 0.840902 0.275659
vt 0.851948 0.281515
vt 0.851948 0.578916
vt 0.840902 0.589965
vt 0.851948 0.589976
vt 0.909787 0.681870
vt 0.920832 0.730411
vt 0.920832 0.685150
vt 0.909787 0.728429
vt 0.920832 0.805033
vt 0.909786 0.866076
vt 0.920832 0.862159
vt 0.257242 0.576086
vt 0.909786 0.931453
vt 0.920832 0.921308
vt 0.366846 0.581527
vt 0.391395 0.583664
vt 0.390034 0.571728
vt 0.406014 0.570085
vt 0.409893 0.533940
vt 0.355625 0.284099
vt 0.329934 0.119563
vt 0.322528 0.004821
vt 0.308466 0.010434
vt 0.266451 0.009705
vt 0.259181 0.023015
vt 0.920832 0.140878
vt 0.909786 0.209986
vt 0.920832 0.216876
vt 0.122420 0.199739
vt 0.063008 0.231514
vt 0.059959 0.245749
vt 0.920832 0.465897
vt 0.909786 0.578916
vt 0.920832 0.578247
vt 0.909787 0.643367
vt 0.920832 0.645516
vt 0.851948 0.681870
vt 0.840902 0.730411
vt 0.851948 0.728429
vt 0.840902 0.805033
vt 0.851948 0.806243
vt 0.851948 0.866076
vt 0.677693 0.012548
vt 0.684532 0.002931
vt 0.851948 0.931453
vt 0.787297 0.007108
vt 0.811846 0.004970
vt 0.800084 -0.000000
vt 0.826465 0.018549
vt 0.830344 0.054694
vt 0.840902 0.046020
vt 0.840533 0.065143
vt 0.776076 0.304535
vt 0.787986 0.312401
vt 0.750386 0.469071
vt 0.764129 0.467227
vt 0.742979 0.583814
vt 0.728917 0.578200
vt 0.686902 0.578930
vt 0.724919 0.588634
vt 0.840902 0.140878
vt 0.851948 0.135466
vt 0.851948 0.209986
vt 0.542872 0.388895
vt 0.483459 0.357121
vt 0.539384 0.398316
vt 0.840902 0.465897
vt 0.851948 0.465897
vt 0.851948 0.578916
vt 0.851948 0.643367
vt 0.840902 0.685150
vt 0.840902 0.645516
vt -0.000000 0.604006
vt 0.057839 0.588634
vt -0.000000 0.588634
vt 0.344285 0.646473
vt 0.362536 0.588634
vt 0.344285 0.588634
vt 0.397123 0.646473
vt 0.389819 0.588634
vt 0.389819 0.646473
vt 0.370625 0.646473
vt 0.362536 0.588634
vt 0.362536 0.646473
vt 0.115678 0.648229
vt 0.057839 0.667484
vt 0.115678 0.667484
vt 0.909786 0.911415
vt 0.000000 0.799139
vt 0.057839 0.784436
vt 0.000000 0.784436
vt 0.180803 0.135445
vt 0.003657 0.426007
vt 0.909786 0.806243
vt 0.909786 1.000000
vt 0.425326 0.588634
vt 0.397123 0.646473
vt 0.425326 0.646473
vt 0.320882 0.646473
vt 0.057839 0.588634
vt 0.115678 0.588634
vt 0.115678 0.736431
vt 0.263043 0.588634
vt 0.320882 0.647127
vt 0.320882 0.588634
vt 0.000000 0.679422
vt 0.057839 0.679422
vt 0.184562 0.675919
vt 0.126723 0.675919
vt 0.126723 0.588634
vt 0.909786 0.135466
vt 0.909786 0.465897
vt 0.424108 0.162628
vt 0.601254 0.453190
vt 0.264081 0.585703
vt 0.379633 0.588634
vt 0.420451 0.542614
vt 0.420082 0.523492
vt 0.367535 0.276233
vt 0.343678 0.121407
vt 0.304468 0.000000
vt 0.118933 0.190319
vt 0.840902 0.862159
vt 0.840902 0.921308
vt 0.810485 0.016906
vt 0.679632 0.565620
vt 0.840902 0.216876
vt 0.480410 0.342886
vt 0.840902 0.578247
vt 0.057839 0.604006
vt 0.397123 0.588634
vt 0.370625 0.588634
vt 0.057839 0.648229
vt 0.851948 0.911415
vt 0.057839 0.799139
vt 0.089578 0.562191
vt 0.131970 0.578850
vt 0.202508 0.588634
vt 0.052483 0.546902
vt -0.000000 0.538825
vt 0.851948 1.000000
vt 0.397123 0.588634
vt 0.320882 0.588634
vt 0.057839 0.736431
vt 0.263043 0.647127
vt 0.184562 0.588634
vt 0.622959 -0.000000
vt 0.552421 0.009785
vt 0.510029 0.026443
vt 0.472934 0.041733
vt 0.420451 0.049810
s 0
f 9/1/1 11/2/1 10/3/1
f 12/4/2 14/5/2 13/6/2
f 15/7/3 17/8/3 16/9/3
f 18/10/4 20/11/4 19/12/4
f 21/13/5 23/14/5 22/15/5
f 24/16/6 26/17/6 25/18/6
f 27/19/7 29/20/7 28/21/7
f 30/22/8 32/23/8 31/24/8
f 35/25/9 37/26/9 36/27/9
f 40/28/10 42/29/10 41/30/10
f 43/31/11 45/32/11 44/33/11
f 46/34/12 48/35/12 47/36/12
f 53/37/13 55/38/13 54/39/13
f 58/40/14 60/41/14 59/42/14
f 71/43/15 73/44/15 72/45/15
f 74/46/16 76/47/16 75/48/16
f 77/49/17 79/50/17 78/51/17
f 80/52/18 82/53/18 81/54/18
f 83/55/19 85/56/19 84/57/19
f 86/58/20 88/59/20 87/60/20
f 89/61/21 91/62/21 90/63/21
f 92/64/22 94/65/22 93/66/22
f 97/67/23 99/68/23 98/69/23
f 102/70/24 104/71/24 103/72/24
f 105/73/25 107/74/25 106/75/25
f 108/76/26 110/77/26 109/78/26
f 115/79/27 117/80/27 116/81/27
f 120/82/28 122/83/28 121/84/28
f 1/85/29 3/86/29 2/87/29
f 4/88/30 5/89/30 3/86/30
f 5/89/31 8/90/31 7/91/31
f 7/92/32 9/1/32 10/3/32
f 11/93/33 13/6/33 10/94/33
f 13/95/34 15/96/34 16/97/34
f 17/98/35 19/99/35 16/97/35
f 19/99/36 21/13/36 22/15/36
f 23/14/35 25/18/35 22/15/35
f 25/18/37 27/19/37 28/21/37
f 29/20/38 31/24/38 28/21/38
f 32/23/39 33/100/39 31/24/39
f 33/100/40 35/25/40 36/27/40
f 37/26/41 38/101/41 36/27/41
f 38/101/42 40/28/42 41/30/42
f 41/30/43 43/102/43 44/103/43
f 44/103/44 46/104/44 47/105/44
f 48/35/45 49/106/45 47/36/45
f 49/106/46 52/107/46 51/108/46
f 51/109/47 53/110/47 54/111/47
f 55/38/48 56/112/48 54/39/48
f 56/112/49 58/113/49 59/114/49
f 59/42/50 62/115/50 61/116/50
f 2/87/51 62/115/51 1/85/51
f 64/117/52 66/118/52 65/119/52
f 65/119/53 68/120/53 67/121/53
f 68/120/54 69/122/54 67/121/54
f 70/123/55 71/43/55 69/124/55
f 72/125/56 76/47/56 74/46/56
f 76/126/57 77/127/57 75/128/57
f 78/129/58 82/130/58 80/131/58
f 82/130/59 83/55/59 81/132/59
f 84/57/58 88/59/58 86/58/58
f 88/59/60 89/61/60 87/60/60
f 90/63/61 94/65/61 92/64/61
f 93/66/62 96/133/62 95/134/62
f 96/133/63 97/67/63 95/134/63
f 98/69/64 101/135/64 100/136/64
f 101/135/65 102/70/65 100/136/65
f 104/71/66 105/137/66 103/72/66
f 107/138/67 108/139/67 106/140/67
f 109/78/68 112/141/68 111/142/68
f 112/141/69 113/143/69 111/142/69
f 114/144/70 115/145/70 113/146/70
f 116/81/71 119/147/71 118/148/71
f 119/147/72 120/149/72 118/148/72
f 122/83/73 123/150/73 121/84/73
f 63/151/74 123/150/74 124/152/74
f 40/153/75 103/154/75 42/155/75
f 23/156/76 83/157/76 84/158/76
f 81/54/76 18/10/76 80/52/76
f 121/84/77 58/40/77 120/82/77
f 45/32/78 105/73/78 106/75/78
f 24/159/79 87/160/79 26/161/79
f 46/34/80 109/78/80 48/35/80
f 27/162/81 90/163/81 29/164/81
f 30/165/82 93/166/82 32/167/82
f 9/168/83 72/125/83 11/93/83
f 12/4/84 75/48/84 14/5/84
f 53/37/85 116/81/85 55/38/85
f 35/169/86 98/170/86 37/171/86
f 15/7/87 78/51/87 17/8/87
f 64/117/88 4/88/88 1/85/88
f 36/27/89 49/172/89 56/173/89
f 123/150/90 1/85/90 62/115/90
f 65/119/91 6/174/91 4/88/91
f 67/121/92 8/90/92 6/174/92
f 69/122/93 9/168/93 8/90/93
f 72/125/94 12/4/94 11/93/94
f 75/48/95 15/175/95 14/5/95
f 78/51/96 18/10/96 17/8/96
f 81/176/97 21/177/97 20/178/97
f 84/158/96 24/179/96 23/156/96
f 87/160/98 27/162/98 26/161/98
f 90/180/99 30/165/99 29/181/99
f 93/166/100 34/182/100 32/167/100
f 95/183/101 35/184/101 34/185/101
f 98/170/102 39/186/102 37/171/102
f 100/187/103 40/153/103 39/186/103
f 103/188/104 43/31/104 42/189/104
f 106/75/105 46/190/105 45/32/105
f 109/78/106 50/191/106 48/35/106
f 111/142/107 52/107/107 50/191/107
f 113/143/108 53/37/108 52/107/108
f 116/81/109 57/192/109 55/38/109
f 118/148/110 58/113/110 57/192/110
f 121/84/111 62/115/111 60/41/111
f 119/193/112 112/194/112 99/68/112
f 1/85/29 4/88/29 3/86/29
f 4/88/30 6/174/30 5/89/30
f 5/89/31 6/174/31 8/90/31
f 7/92/32 8/195/32 9/1/32
f 11/93/33 12/4/33 13/6/33
f 13/95/34 14/196/34 15/96/34
f 17/98/35 18/197/35 19/99/35
f 19/99/36 20/198/36 21/13/36
f 23/14/35 24/16/35 25/18/35
f 25/18/37 26/17/37 27/19/37
f 29/20/38 30/22/38 31/24/38
f 32/23/39 34/199/39 33/100/39
f 33/100/40 34/199/40 35/25/40
f 37/26/41 39/200/41 38/101/41
f 38/101/42 39/200/42 40/28/42
f 41/30/43 42/29/43 43/102/43
f 44/103/44 45/201/44 46/104/44
f 48/35/45 50/191/45 49/106/45
f 49/106/46 50/191/46 52/107/46
f 51/109/47 52/202/47 53/110/47
f 55/38/48 57/192/48 56/112/48
f 56/112/49 57/192/49 58/113/49
f 59/42/50 60/41/50 62/115/50
f 2/87/51 61/116/51 62/115/51
f 64/117/52 63/151/52 66/118/52
f 65/119/53 66/118/53 68/120/53
f 68/120/54 70/203/54 69/122/54
f 70/123/55 73/44/55 71/43/55
f 72/125/56 73/204/56 76/47/56
f 76/126/57 79/205/57 77/127/57
f 78/129/58 79/205/58 82/130/58
f 82/130/59 85/56/59 83/55/59
f 84/57/58 85/56/58 88/59/58
f 88/59/60 91/62/60 89/61/60
f 90/63/61 91/62/61 94/65/61
f 93/66/62 94/65/62 96/133/62
f 96/133/63 99/68/63 97/67/63
f 98/69/64 99/68/64 101/135/64
f 101/135/65 104/71/65 102/70/65
f 104/71/66 107/138/66 105/137/66
f 107/138/67 110/206/67 108/139/67
f 109/78/68 110/77/68 112/141/68
f 112/141/69 114/207/69 113/143/69
f 114/144/70 117/208/70 115/145/70
f 116/81/71 117/80/71 119/147/71
f 119/147/72 122/209/72 120/149/72
f 122/83/73 124/152/73 123/150/73
f 63/151/74 64/117/74 123/150/74
f 40/153/75 102/210/75 103/154/75
f 23/156/76 21/164/76 83/157/76
f 81/54/76 20/11/76 18/10/76
f 121/84/77 60/41/77 58/40/77
f 45/32/113 43/31/113 105/73/113
f 24/159/79 86/211/79 87/160/79
f 46/34/80 108/76/80 109/78/80
f 27/162/81 89/212/81 90/163/81
f 30/165/82 92/213/82 93/166/82
f 9/168/83 71/214/83 72/125/83
f 12/4/84 74/46/84 75/48/84
f 53/37/85 115/79/85 116/81/85
f 35/169/86 97/215/86 98/170/86
f 15/7/87 77/49/87 78/51/87
f 64/117/88 65/119/88 4/88/88
f 2/216/89 3/217/89 5/218/89
f 5/218/89 7/92/89 10/3/89
f 10/3/89 13/95/89 16/97/89
f 16/97/89 19/99/89 22/15/89
f 22/15/89 25/18/89 28/21/89
f 28/21/89 31/24/89 33/100/89
f 36/27/89 38/101/89 41/30/89
f 28/21/89 33/100/89 36/27/89
f 16/97/89 22/15/89 28/21/89
f 2/216/89 5/218/89 10/3/89
f 10/3/89 16/97/89 28/21/89
f 36/27/89 41/30/89 44/103/89
f 10/3/89 28/21/89 36/27/89
f 61/219/89 2/216/89 10/3/89
f 56/173/89 59/220/89 61/219/89
f 51/109/89 54/111/89 56/173/89
f 44/103/89 47/105/89 49/172/89
f 49/172/89 51/109/89 56/173/89
f 56/173/89 61/219/89 10/3/89
f 36/27/89 44/103/89 49/172/89
f 56/173/89 10/3/89 36/27/89
f 123/150/90 64/117/90 1/85/90
f 65/119/91 67/121/91 6/174/91
f 67/121/92 69/122/92 8/90/92
f 69/122/93 71/214/93 9/168/93
f 72/125/94 74/46/94 12/4/94
f 75/48/95 77/221/95 15/175/95
f 78/51/96 80/52/96 18/10/96
f 81/176/97 83/222/97 21/177/97
f 84/158/96 86/223/96 24/179/96
f 87/160/98 89/212/98 27/162/98
f 90/180/99 92/213/99 30/165/99
f 93/166/100 95/224/100 34/182/100
f 95/183/101 97/225/101 35/184/101
f 98/170/102 100/187/102 39/186/102
f 100/187/103 102/210/103 40/153/103
f 103/188/104 105/73/104 43/31/104
f 106/75/105 108/226/105 46/190/105
f 109/78/106 111/142/106 50/191/106
f 111/142/107 113/143/107 52/107/107
f 113/143/108 115/79/108 53/37/108
f 116/81/109 118/148/109 57/192/109
f 118/148/110 120/149/110 58/113/110
f 121/84/111 123/150/111 62/115/111
f 68/227/112 66/228/112 63/229/112
f 124/230/112 122/231/112 119/193/112
f 68/227/112 63/229/112 124/230/112
f 73/44/112 70/123/112 68/227/112
f 79/205/112 76/126/112 73/44/112
f 85/56/112 82/130/112 79/205/112
f 91/62/112 88/59/112 85/56/112
f 96/133/112 94/65/112 91/62/112
f 104/71/112 101/135/112 99/68/112
f 99/68/112 96/133/112 91/62/112
f 91/62/112 85/56/112 79/205/112
f 73/44/112 68/227/112 124/230/112
f 91/62/112 79/205/112 73/44/112
f 107/138/112 104/71/112 99/68/112
f 99/68/112 91/62/112 73/44/112
f 73/44/112 124/230/112 119/193/112
f 119/193/112 117/208/112 114/144/112
f 112/194/112 110/206/112 107/138/112
f 119/193/112 114/144/112 112/194/112
f 99/68/112 73/44/112 119/193/112
f 112/194/112 107/138/112 99/68/112
